<svg width="70" height="60" fill="none" xmlns="http://www.w3.org/2000/svg"><path d="M65.77 0H3.461A3.472 3.472 0 000 3.462v39.23a3.472 3.472 0 003.462 3.462h24.23v4.615h-5.769a1.154 1.154 0 00-1.154 1.154v6.923A1.154 1.154 0 0021.923 60h25.385a1.154 1.154 0 001.154-1.154v-6.923a1.154 1.154 0 00-1.154-1.154h-5.77v-4.615H65.77a3.472 3.472 0 003.462-3.462V3.462A3.472 3.472 0 0065.769 0zM46.153 53.077v4.615H23.077v-4.615h23.077zM30 50.769v-4.615h9.23v4.615H30zm36.923-8.077a1.154 1.154 0 01-1.154 1.154H3.462a1.154 1.154 0 01-1.154-1.154v-3.461h64.615v3.461zm0-5.769H2.308V3.462a1.154 1.154 0 011.154-1.154h62.307a1.154 1.154 0 011.154 1.154v33.461z" fill="#000"/><path fill="#F8991D" d="M51 20h9v8h-9z"/><path fill="#225999" d="M8 25h20v4H8zm-1 4h4v4H7zm18 0h4v4h-4zM12 12h12v4H12z"/><path d="M24.23 5.77H11.54a5.77 5.77 0 00-5.77 5.769v21.923a1.154 1.154 0 001.154 1.153h3.462a1.154 1.154 0 001.119-.877L12.438 30h10.893l.934 3.739a1.154 1.154 0 001.12.876h3.461A1.154 1.154 0 0030 33.461V11.54a5.77 5.77 0 00-5.77-5.77zM9.486 32.307H8.077V30h1.985l-.577 2.308zm18.207 0h-1.407L25.708 30h1.984v2.308zm0-4.616H8.077v-2.307h19.615v2.307zm0-4.615H8.077v-1.154a3.472 3.472 0 013.462-3.461H24.23a3.472 3.472 0 013.461 3.461v1.154zm-15-8.654a1.73 1.73 0 011.731-1.73h6.923a1.73 1.73 0 010 3.46h-6.923a1.73 1.73 0 01-1.73-1.73zm15 2.92a5.68 5.68 0 00-2.746-1.12 4.103 4.103 0 00.439-1.8 4.039 4.039 0 00-4.039-4.038h-6.923a4.039 4.039 0 00-4.038 4.038c.007.626.157 1.241.438 1.8a5.68 5.68 0 00-2.746 1.12v-5.804a3.472 3.472 0 013.462-3.462h12.69a3.472 3.472 0 013.461 3.462v5.803zm31.154 10.35h-6.923v-6.924h5.675v-2.307H50.77a1.154 1.154 0 00-1.154 1.153v9.231A1.154 1.154 0 0050.77 30H60a1.154 1.154 0 001.154-1.154v-3.449h-2.308v2.295z" fill="#000"/><path d="M55.51 23.878l-1.616-1.616-1.632 1.632 2.308 2.308a1.154 1.154 0 001.486.123l8.077-5.77-1.34-1.878-7.284 5.2zM63.462 9.23H34.615v2.309h28.847V9.23zm0 4.616H34.615v2.308h28.847v-2.308zm-16.154 4.616H34.615v2.307h12.693v-2.307zm0 4.615H34.615v2.308h12.693v-2.308zm-3.462 4.615h-9.23V30h9.23v-2.308z" fill="#000"/></svg>