<svg width="36" height="60" fill="none" xmlns="http://www.w3.org/2000/svg"><path d="M35.483 5.914A5.914 5.914 0 0029.569 0H5.914A5.914 5.914 0 000 5.914v48.172A5.914 5.914 0 005.914 60h23.655a5.914 5.914 0 005.914-5.914V5.914zM1.97 11.704h31.54v34.744H1.971V11.704zm3.925-9.733h23.69c2.174 0 3.925 1.814 3.925 3.988v3.774H1.971V5.96c0-2.174 1.751-3.988 3.925-3.988zm23.69 56.181H5.896c-2.174 0-3.925-1.814-3.925-3.988v-5.745h31.54v5.745c0 2.174-1.75 3.988-3.925 3.988z" fill="#000"/><path fill="#F8991D" d="M5 36h7v6H5z"/><path d="M5 20l21.5-1 3.5 3v3h-7.5l-5 6H14l3-6-11.5-2-.5-3z" fill="#225999"/><path d="M13.548 6.53h8.386a.985.985 0 100-1.971h-8.386a.986.986 0 000 1.97zm4.193 43.19a3.566 3.566 0 100 7.133 3.566 3.566 0 000-7.133zm0 5.16a1.594 1.594 0 110-3.187 1.594 1.594 0 010 3.188zm.598-23.537l4.776-5.47h5.986a2.725 2.725 0 00.703-5.358l-.564-.151a.636.636 0 01-.406-.376 2.582 2.582 0 00-2.39-1.63H8.86l-1.984-3.139a.96.96 0 00-.835-.435H4.643a.936.936 0 00-.947.965v6.98a.968.968 0 00.577.905l2.816 1.213a12.525 12.525 0 004.975 1.026h3.457l-2.403 4.366a.951.951 0 00.377 1.305.969.969 0 00.487.12h3.613a.968.968 0 00.744-.321zM5.667 16.946l.867 1.411h-.867v-1.411zm9.982 12.746l2.402-4.35a.972.972 0 00-.863-1.44h-5.124a10.518 10.518 0 01-4.188-.866l-2.209-.958v-1.75h20.776a.62.62 0 01.562.397 2.602 2.602 0 001.727 1.535l.563.154a.757.757 0 01-.194 1.487h-6.435a.968.968 0 00-.744.32l-4.776 5.471H15.65zm-2.466 6.283a.986.986 0 00-.986-.985H4.558a.986.986 0 00-.985.985v6.9a.986.986 0 00.985.985h7.639a.986.986 0 00.986-.985v-6.9zM11.21 41.89H5.544v-4.928h5.667v4.928z" fill="#000"/><path d="M6.506 40.343l.975.777a.986.986 0 001.356-.123l1.55-1.772a.985.985 0 10-1.483-1.298l-.932 1.065-.239-.19a.986.986 0 00-1.227 1.542zm24.398-3.875H16.079a.986.986 0 100 1.971h14.825a.985.985 0 100-1.97zm-4.728 3.943H16.079a.986.986 0 100 1.97h10.097a.986.986 0 100-1.97z" fill="#000"/></svg>