<svg width="63" height="60" fill="none" xmlns="http://www.w3.org/2000/svg"><path d="M7.956 5.521a1.05 1.05 0 10-.002-2.099 1.05 1.05 0 00.002 2.1zm3.251 0a1.05 1.05 0 10.003-2.1 1.05 1.05 0 00-.003 2.1zm-6.188 0a1.05 1.05 0 10.002-2.099 1.05 1.05 0 00-.002 2.1zm2.977 42.596h28.489a1.063 1.063 0 000-2.125H7.995a1.062 1.062 0 100 2.125z" fill="#142238"/><path d="M62.287 54.303l-8.505-12.498a1.063 1.063 0 00-1.476-.28l-2.084 1.418-1.244-1.836a14.326 14.326 0 00-3.361-24.436V2.94A2.945 2.945 0 0042.675 0H2.942A2.945 2.945 0 000 2.942v54.104A2.95 2.95 0 002.942 60H42.67a2.95 2.95 0 002.941-2.954V43.107c.554-.23 1.092-.496 1.611-.798l1.244 1.829-2.083 1.417a1.062 1.062 0 00-.28 1.476l8.506 12.498a1.062 1.062 0 001.476.28l5.923-4.029a1.062 1.062 0 00.28-1.477zM50.16 23.02a12.218 12.218 0 01-3.233 16.968c-.85.583-1.774 1.05-2.747 1.392a11.37 11.37 0 01-3.051.677 12.195 12.195 0 01-11.178-5.297 9.59 9.59 0 01-.433-.682 12.184 12.184 0 01-.754-10.843 12.041 12.041 0 013.446-4.708c.309-.266.637-.512.967-.743.274-.187.556-.36.843-.523.092-.052.186-.098.279-.147.198-.106.398-.212.601-.305.114-.052.228-.1.342-.148a12.481 12.481 0 01.94-.36c.192-.063.384-.122.577-.176.124-.034.25-.069.375-.1.202-.05.404-.091.608-.13.119-.024.238-.05.358-.068.23-.038.462-.064.694-.089.094-.01.189-.024.285-.031a11.595 11.595 0 012.01.007h.043a12.155 12.155 0 019.028 5.306zm-10-7.476h-.224a13.89 13.89 0 00-3.49.454h-.02c-.374.098-.742.21-1.104.338l-.107.037a14.32 14.32 0 00-.966.389l-.188.083c-.291.134-.576.28-.859.434-.075.04-.152.078-.227.12-.343.196-.681.403-1.01.627-.33.225-.587.425-.837.63H7.996a1.063 1.063 0 000 2.124h21.009c-.107.13-.221.257-.32.391-.065.086-.143.164-.212.25-.264.364-.497.744-.726 1.133-.064.107-.142.213-.203.32-.162.29-.29.594-.425.894H7.996a1.062 1.062 0 100 2.125h18.292c-.012.04-.03.078-.042.12-.034.123-.05.25-.081.375-.086.343-.165.687-.226 1.037-.013.08-.039.159-.052.24-.018.111-.018.226-.033.338a14.66 14.66 0 00-.097 1.007c-.012.194-.025.386-.03.582 0 .106-.014.212-.014.319H5.503V14.645H40.16v.898zm-12.643 21.32c.024.04.049.075.071.114.196.346.398.679.612.99a14.547 14.547 0 002.642 2.915H7.998a1.063 1.063 0 100 2.124h26.257c.354.155.712.297 1.074.425.058.02.113.046.171.065l.073.02c.429.142.863.263 1.302.363l.154.035c.03.006.06.008.088.014.45.094.902.173 1.358.224h.02c.462.048.926.074 1.391.076.049 0 .097.008.145.008h.132v7.9H5.504V36.864h22.013zM2.942 2.125H42.67a.818.818 0 01.817.817v4.192H2.125V2.942a.818.818 0 01.817-.817zm40.545 54.921a.824.824 0 01-.817.83H2.942a.834.834 0 01-.817-.83V9.26h41.362v6.702c-.078-.02-.158-.03-.236-.049-.101-.023-.202-.041-.303-.063-.219-.044-.438-.09-.659-.125v-2.142a1.062 1.062 0 00-1.062-1.062H4.44a1.063 1.063 0 00-1.062 1.062v17.396a1.063 1.063 0 001.062 1.063h21.443c.14.92.368 1.823.682 2.698H4.441a1.063 1.063 0 00-1.062 1.06v17.396A1.063 1.063 0 004.44 54.26h36.782a1.063 1.063 0 001.062-1.063V44.06l.038-.007c.106-.016.203-.038.305-.056.24-.044.477-.092.713-.15.047-.01.095-.016.141-.028l.005 13.227zm12.28.41l-7.31-10.742 4.166-2.835 7.31 10.742-4.166 2.834z" fill="#142238"/><path d="M50.16 23.019a12.147 12.147 0 00-5.963-4.631 12.507 12.507 0 00-3.062-.672h-.043a11.912 11.912 0 00-2.01-.007c-.096.007-.19.022-.285.032-.232.024-.463.05-.694.088-.12.019-.239.044-.358.068-.067.013-.133.028-.199.042.55.114 1.091.264 1.62.45a12.219 12.219 0 012.73 21.598c-.85.583-1.774 1.05-2.746 1.392-.514.189-1.04.34-1.575.454 1.167.25 2.365.325 3.554.222a11.367 11.367 0 003.051-.676 11.705 11.705 0 002.747-1.392 12.218 12.218 0 003.233-16.973v.005z" fill="#225999"/><path d="M52.622 43.88l-4.166 2.834 7.31 10.742 4.167-2.835-7.311-10.742z" fill="#F8991D"/></svg>