<svg width="23" height="17" fill="none" xmlns="http://www.w3.org/2000/svg"><path d="M17.371 5.583H.93A.93.93 0 000 6.51a.93.93 0 00.93.928h16.446a.93.93 0 00.93-.928.935.935 0 00-.935-.928zm4.7-4.69H.93a.93.93 0 00-.93.928.93.93 0 00.93.928h21.14a.93.93 0 00.93-.928.93.93 0 00-.93-.928zm0 9.38H.93A.93.93 0 000 11.2a.93.93 0 00.93.928h21.14A.93.93 0 0023 11.2a.93.93 0 00-.93-.928zm-4.7 4.69H.93a.93.93 0 00-.93.928.93.93 0 00.93.928h16.446a.93.93 0 00.93-.928.932.932 0 00-.935-.928z" fill="#200E32"/></svg>