<svg width="50" height="50" fill="none" xmlns="http://www.w3.org/2000/svg"><path d="M12.222 29.63a.885.885 0 01-.885-.884v-7.523a.885.885 0 01.885-.885h4.072a.885.885 0 010 1.77h-3.187v6.638a.885.885 0 01-.885.885z" fill="#F8991D"/><path d="M15.131 25.868h-2.909a.885.885 0 010-1.77h2.91a.885.885 0 010 1.77zm8.32 3.763a.879.879 0 01-.6-.236l-2.582-2.39v1.738a.885.885 0 11-1.77 0V21.22a.885.885 0 01.885-.885h2.186a2.767 2.767 0 11.074 5.533l2.409 2.23a.885.885 0 01-.601 1.534v-.001zm-3.182-5.533h1.301a.995.995 0 00.39-1.925.995.995 0 00-.39-.067h-1.3v1.992zm10.345 5.533h-4.072a.885.885 0 01-.885-.885v-7.523a.885.885 0 01.886-.885h4.07a.885.885 0 010 1.77h-3.185v5.753h3.186a.885.885 0 010 1.77z" fill="#F8991D"/><path d="M29.403 25.868h-2.857a.885.885 0 110-1.77h2.857a.885.885 0 110 1.77zm8.373 3.763h-4.071a.885.885 0 01-.886-.885v-7.523a.885.885 0 01.886-.885h4.07a.885.885 0 010 1.77H34.59v5.753h3.186a.885.885 0 110 1.77z" fill="#F8991D"/><path d="M36.564 25.869h-2.856a.885.885 0 110-1.77h2.856a.885.885 0 110 1.77z" fill="#F8991D"/><path d="M25 49.983a.886.886 0 01-.685-.324l-4.468-5.455-6.596 2.493a.885.885 0 01-1.187-.686l-1.133-6.96-6.961-1.133a.885.885 0 01-.685-1.187l2.493-6.596-5.454-4.468a.885.885 0 010-1.368l5.454-4.468-2.492-6.596a.885.885 0 01.685-1.186l6.96-1.134 1.134-6.96a.885.885 0 011.187-.686l6.595 2.493L24.315.308a.914.914 0 011.368 0l4.468 5.454 6.596-2.492a.885.885 0 01.626 1.656l-7.191 2.717a.885.885 0 01-.997-.265l-4.186-5.112-4.185 5.11a.884.884 0 01-.998.265l-6.178-2.333-1.062 6.52a.885.885 0 01-.73.732l-6.522 1.062L7.658 19.8a.885.885 0 01-.265.998L2.28 24.983l5.11 4.186a.885.885 0 01.266.997l-2.333 6.178 6.521 1.062a.885.885 0 01.731.731l1.062 6.521 6.18-2.334a.884.884 0 01.996.265L25 47.701l4.186-5.11a.884.884 0 111.369 1.121l-4.868 5.947a.886.886 0 01-.687.324z" fill="#F8991D"/><path d="M37.06 46.756a.894.894 0 01-.314-.057l-7.19-2.718a.885.885 0 01.626-1.656l6.178 2.335 1.062-6.52a.885.885 0 01.732-.731l6.52-1.062-2.334-6.179a.885.885 0 01.266-.997l5.11-4.188-5.11-4.185a.885.885 0 01-.265-.997l2.335-6.178-6.521-1.062a.883.883 0 01-.731-1.017.886.886 0 011.017-.73l7.589 1.239a.885.885 0 01.685 1.187l-2.493 6.595 5.454 4.468a.886.886 0 010 1.368l-5.454 4.468 2.492 6.596a.885.885 0 01-.686 1.187l-6.962 1.134-1.133 6.96a.885.885 0 01-.873.743v-.003z" fill="#F8991D"/></svg>