<svg width="52" height="52" fill="none" xmlns="http://www.w3.org/2000/svg"><path d="M26 51c13.807 0 25-11.193 25-25S39.807 1 26 1 1 12.193 1 26s11.193 25 25 25z" stroke="#F8991D" stroke-width="2" stroke-linecap="round" stroke-linejoin="round"/><path d="M15.11 44.856l1.612-2.794m9.28-31.41L26 26l.002-15.349zm12.276 15.35H26.024h12.254zM26 47.762v-3.225 3.225zM4.237 26h3.226-3.226zM26.015 4.247v3.226-3.226zm21.753 21.778h-3.226 3.226zM7.164 36.885l2.794-1.612-2.794 1.613zm7.967-29.728l1.613 2.794-1.613-2.794zm29.727 7.983l-2.793 1.613 2.793-1.613zm-7.983 29.728l-1.613-2.794 1.613 2.794zM7.167 15.135l2.794 1.613-2.794-1.613zm29.729-7.966l-1.613 2.794 1.613-2.794zm7.95 29.737l-2.794-1.613 2.794 1.613z" stroke="#F8991D" stroke-width="2" stroke-linecap="round" stroke-linejoin="round"/></svg>