<svg width="21" height="22" fill="none" xmlns="http://www.w3.org/2000/svg"><path d="M18.434 5.636a3 3 0 00-2.506-.417l-4.39 1.233.152-1.528A4.13 4.13 0 006.44.613a1 1 0 00-.717.814L4.712 8.369l-2.262.635a3 3 0 00-2.078 3.7l1.893 6.739a3 3 0 003.7 2.077l12.256-3.442a3 3 0 002.174-3.166l-.67-7.083a3 3 0 00-1.29-2.193zM7.35 19.054l-1.925.54a1 1 0 01-1.233-.692l-1.893-6.74a1 1 0 01.692-1.232l1.926-.541 2.433 8.665zM17.751 8.01l.67 7.082a1 1 0 01-.741 1.06l-8.405 2.36-2.647-9.424.963-6.628a2.11 2.11 0 012.08 2.303l-.123 1.52a2 2 0 002.53 2.094l4.39-1.233a1 1 0 01.84.139 1 1 0 01.443.727z" fill="#fff"/></svg>