<svg width="50" height="50" fill="none" xmlns="http://www.w3.org/2000/svg"><path d="M24.066.028C12.395.47 2.384 8.99.365 20.708a.848.848 0 001.667.313C4.044 9.344 14.475 1.034 26.306 1.695c11.831.66 21.284 10.05 21.983 21.878.7 11.83-7.603 22.33-19.274 24.38a.835.835 0 10.313 1.614c12.49-2.194 21.377-13.437 20.628-26.098C49.208 10.81 39.073.735 26.41.028a24.88 24.88 0 00-2.344 0zm.782 3.282a.834.834 0 00-.677.833V5.81a.833.833 0 101.666 0V4.143a.833.833 0 00-.833-.833.833.833 0 00-.156 0zm.104 5a.834.834 0 00-.781.834v6.668a.832.832 0 101.666 0V9.144a.833.833 0 00-.885-.834zm-7.085 10.783c-2.176 0-3.333 1.285-3.333 3.543v1.406h2.135v-1.51c0-1.008.441-1.407 1.146-1.407.706 0 1.146.345 1.146 1.615 0 4.071-4.427 4.756-4.427 8.908v1.719h6.407v-1.98h-4.167c-.02-.1 0-.212 0-.312 0-2.318 4.375-4.005 4.375-8.44 0-2.257-1.105-3.542-3.282-3.542zm8.179.157l-4.011 9.585v1.98h4.271v2.552h2.188v-2.553h1.042v-1.98h-1.042V19.25h-2.448zm.26 4.271v5.314h-2.24l2.24-5.314zm4.532.625a.84.84 0 00-.755.912.837.837 0 00.912.755h9.845a.833.833 0 100-1.667h-9.845a.833.833 0 00-.157 0zm13.18 0a.837.837 0 10.156 1.667h1.667a.833.833 0 100-1.667h-1.667a.832.832 0 00-.156 0zm-43.34.834a.833.833 0 00-.418.26v.052a.833.833 0 00-.156.157v.052a.836.836 0 00-.052.104v.052a.833.833 0 00-.052.208c.236 13.174 10.86 23.77 24.014 24.067.104.02.21.02.313 0a.833.833 0 00.469-.209.84.84 0 00.104-.156.853.853 0 00.052-.052.834.834 0 00.052-.156.834.834 0 000-.469v-7.866a.838.838 0 000-.312.833.833 0 00-.156-.365v-.052h-.052v-.052a.833.833 0 00-.47-.26.835.835 0 00-.207 0 8.496 8.496 0 01-5.158-1.46h-.052v-.051h-.104v-.053a.834.834 0 00-.417-.104.833.833 0 00-.729.47l-.052.051-1.198 2.397a17.776 17.776 0 01-7.605-7.606l2.448-1.302a.833.833 0 00.417-.886v-.052a.851.851 0 00-.053-.104v-.052a.853.853 0 00-.052-.052.83.83 0 00-.052-.104v-.052a8.451 8.451 0 01-1.458-5.158.833.833 0 00-.938-.885H.938a.823.823 0 00-.105 0 .833.833 0 00-.156 0zm1.041 1.667h6.72c.06 1.632.494 3.216 1.302 4.636l-2.448 1.198a.832.832 0 00-.209.156.816.816 0 00-.052.052.836.836 0 00-.104.157v.052a.836.836 0 00-.052.104v.052a.833.833 0 000 .209v.052a.83.83 0 000 .104v.052a.84.84 0 00.052.104c.007.014-.006.038 0 .052a.864.864 0 00.156.209c1.903 3.966 5.108 7.14 9.064 9.063a.842.842 0 00.209.157c.014.006.038-.007.052 0 .048.04.1.075.156.104h.052c.035.002.07.002.104 0h.053a.902.902 0 00.104 0 .823.823 0 00.104-.052h.052a.835.835 0 00.208-.104h.052a.834.834 0 00.157-.209v-.052a.824.824 0 00.052-.052l1.25-2.344c1.406.792 2.973 1.188 4.584 1.25v6.616c-11.652-.636-20.99-9.908-21.618-21.566z" fill="#F8991D"/></svg>