<svg width="23" height="24" fill="none" xmlns="http://www.w3.org/2000/svg"><path fill-rule="evenodd" clip-rule="evenodd" d="M8.107 12.122C3.415 13.568 0 17.935 0 23.092a.766.766 0 001.533 0c0-5.49 4.466-9.948 9.967-9.948 5.5 0 9.967 4.457 9.967 9.948a.766.766 0 001.533 0c0-5.157-3.414-9.524-8.107-10.97a6.114 6.114 0 002.74-5.1c0-3.378-2.748-6.121-6.133-6.121S5.367 3.644 5.367 7.022a6.114 6.114 0 002.74 5.1zm3.393-9.69c2.538 0 4.6 2.057 4.6 4.59a4.598 4.598 0 01-4.6 4.592 4.598 4.598 0 01-4.6-4.592 4.598 4.598 0 014.6-4.59z" fill="#fff"/></svg>