<svg width="24" height="14" viewBox="0 0 24 14" fill="none" xmlns="http://www.w3.org/2000/svg">
<path d="M3.60276e-09 7.00301C0.00201412 7.26248 0.104558 7.51103 0.286 7.69622L0.292 7.70824L6.292 13.7188C6.4806 13.9013 6.7332 14.0022 6.9954 14C7.2576 13.9977 7.50841 13.8923 7.69382 13.7066C7.87923 13.5209 7.9844 13.2696 7.98667 13.0069C7.98895 12.7443 7.88816 12.4912 7.706 12.3023L3.414 8.00076H23C23.2652 8.00076 23.5196 7.89522 23.7071 7.70735C23.8946 7.51948 24 7.26468 24 6.999C24 6.73332 23.8946 6.47851 23.7071 6.29065C23.5196 6.10278 23.2652 5.99724 23 5.99724H3.414L7.706 1.69769C7.88816 1.50876 7.98895 1.25571 7.98667 0.993054C7.9844 0.730396 7.87923 0.479142 7.69382 0.293408C7.50841 0.107674 7.2576 0.0023203 6.9954 3.78691e-05C6.7332 -0.00224456 6.4806 0.098727 6.292 0.281205L0.292 6.29176L0.286 6.30177C0.196977 6.39213 0.126334 6.49897 0.0780001 6.61633C0.0265202 6.73731 -1.12881e-05 6.86748 3.60276e-09 6.999V7.00301Z" fill="#225999"/>
</svg>
