<svg width="36" height="60" viewBox="0 0 36 60" fill="none" xmlns="http://www.w3.org/2000/svg">
<path d="M35.4825 5.91376C35.4825 4.34533 34.8595 2.84114 33.7505 1.7321C32.6414 0.623055 31.1372 0 29.5688 0H5.91376C4.34533 0 2.84114 0.623055 1.7321 1.7321C0.623055 2.84114 0 4.34533 0 5.91376V54.0862C0 55.6547 0.623055 57.1589 1.7321 58.2679C2.84114 59.3769 4.34533 60 5.91376 60H29.5688C31.1372 60 32.6414 59.3769 33.7505 58.2679C34.8595 57.1589 35.4825 55.6547 35.4825 54.0862V5.91376ZM1.97125 11.7043H33.5113V46.4476H1.97125V11.7043ZM5.89614 1.97125H29.5864C31.7603 1.97125 33.5113 3.7853 33.5113 5.95922V9.73306H1.97125V5.95922C1.97125 3.7853 3.72222 1.97125 5.89614 1.97125ZM29.5864 58.152H5.89614C3.72222 58.152 1.97125 56.3379 1.97125 54.164V48.4189H33.5113V54.164C33.5113 56.3379 31.7603 58.152 29.5864 58.152Z" fill="black"/>
<rect x="5" y="36" width="7" height="6" fill="#F8991D"/>
<path d="M5 20L26.5 19L30 22V25H22.5L17.5 31H14L17 25L5.5 23L5 20Z" fill="#225999"/>
<path d="M13.5478 6.52977H21.9345C22.1959 6.52977 22.4466 6.42593 22.6314 6.24109C22.8163 6.05625 22.9201 5.80555 22.9201 5.54414C22.9201 5.28274 22.8163 5.03204 22.6314 4.8472C22.4466 4.66236 22.1959 4.55852 21.9345 4.55852H13.5478C13.2864 4.55852 13.0357 4.66236 12.8508 4.8472C12.666 5.03204 12.5622 5.28274 12.5622 5.54414C12.5622 5.80555 12.666 6.05625 12.8508 6.24109C13.0357 6.42593 13.2864 6.52977 13.5478 6.52977ZM17.7411 49.7199C17.0358 49.7199 16.3463 49.9291 15.7599 50.3209C15.1735 50.7128 14.7164 51.2697 14.4465 51.9213C14.1766 52.573 14.1059 53.29 14.2435 53.9817C14.3811 54.6735 14.7208 55.3089 15.2195 55.8077C15.7182 56.3064 16.3537 56.646 17.0454 56.7836C17.7372 56.9212 18.4542 56.8506 19.1058 56.5807C19.7575 56.3108 20.3144 55.8537 20.7063 55.2673C21.0981 54.6808 21.3073 53.9913 21.3073 53.286C21.3062 52.3406 20.9301 51.4341 20.2616 50.7656C19.593 50.097 18.6866 49.721 17.7411 49.7199ZM17.7411 54.8809C17.4257 54.8809 17.1173 54.7874 16.8551 54.6121C16.5928 54.4369 16.3884 54.1878 16.2677 53.8964C16.147 53.6049 16.1154 53.2843 16.1769 52.9749C16.2385 52.6655 16.3903 52.3813 16.6134 52.1583C16.8364 51.9352 17.1206 51.7834 17.43 51.7218C17.7394 51.6603 18.06 51.6919 18.3515 51.8126C18.6429 51.9333 18.892 52.1377 19.0672 52.4C19.2425 52.6622 19.336 52.9706 19.336 53.286C19.3355 53.7089 19.1673 54.1142 18.8683 54.4132C18.5693 54.7122 18.164 54.8804 17.7411 54.8809ZM18.339 31.3429L23.115 25.8727H29.1012C29.7625 25.8725 30.4011 25.6318 30.8981 25.1956C31.3951 24.7593 31.7165 24.1573 31.8024 23.5016C31.8884 22.8459 31.733 22.1813 31.3652 21.6318C30.9974 21.0822 30.4424 20.6851 29.8035 20.5145L29.2398 20.3639C29.1481 20.3359 29.064 20.2875 28.9936 20.2224C28.9233 20.1572 28.8687 20.077 28.8339 19.9876C28.6438 19.5082 28.3145 19.0967 27.8884 18.8061C27.4624 18.5156 26.9591 18.3592 26.4433 18.3573H8.8599L6.87633 15.2191C6.78612 15.0811 6.66194 14.9686 6.51572 14.8925C6.36949 14.8164 6.20615 14.7791 6.04138 14.7844H4.64253C4.51625 14.7828 4.39096 14.8068 4.27422 14.8549C4.15747 14.9031 4.05168 14.9744 3.96323 15.0645C3.87477 15.1546 3.80549 15.2617 3.75956 15.3794C3.71362 15.497 3.69199 15.6227 3.69596 15.7489V22.7282C3.69203 22.9193 3.74477 23.1073 3.84753 23.2685C3.9503 23.4297 4.09848 23.5569 4.27341 23.634L7.08922 24.8474C8.65999 25.5253 10.353 25.8743 12.0638 25.8727H15.5205L13.1181 30.2391C13.0355 30.3859 12.9935 30.552 12.9961 30.7204C12.9988 30.8888 13.0461 31.0534 13.1332 31.1975C13.2214 31.3427 13.3462 31.4621 13.4951 31.5439C13.644 31.6256 13.8118 31.6668 13.9816 31.6632H17.5951C17.7349 31.6667 17.8738 31.6399 18.0022 31.5846C18.1306 31.5293 18.2455 31.4468 18.339 31.3429ZM5.66721 16.946L6.53382 18.3573H5.66721V16.946ZM15.6489 29.692L18.0514 25.342C18.1337 25.1932 18.1755 25.0253 18.1726 24.8552C18.1696 24.6851 18.122 24.5187 18.0345 24.3728C17.947 24.2269 17.8227 24.1065 17.674 24.0238C17.5254 23.9411 17.3576 23.8989 17.1875 23.9014H12.0638C10.6234 23.9027 9.19802 23.608 7.87612 23.0358L5.66721 22.078V20.3285H26.4433C26.5657 20.3317 26.6844 20.371 26.7845 20.4416C26.8845 20.5122 26.9614 20.6108 27.0054 20.725C27.1555 21.0964 27.3894 21.4282 27.6888 21.6944C27.9882 21.9606 28.345 22.1541 28.7315 22.2598L29.2951 22.4144C29.4718 22.4623 29.6251 22.5726 29.7267 22.7248C29.8283 22.8771 29.8712 23.0611 29.8475 23.2426C29.8239 23.4241 29.7352 23.5909 29.598 23.712C29.4607 23.8332 29.2843 23.9005 29.1012 23.9014H22.6661C22.5263 23.898 22.3875 23.9249 22.2592 23.9802C22.1308 24.0355 22.0159 24.1179 21.9224 24.2218L17.1464 29.692H15.6489ZM13.1826 35.9754C13.1826 35.714 13.0788 35.4633 12.8939 35.2784C12.7091 35.0936 12.4584 34.9897 12.197 34.9897H4.55838C4.29698 34.9897 4.04628 35.0936 3.86144 35.2784C3.6766 35.4633 3.57275 35.714 3.57275 35.9754V42.8747C3.57275 43.1361 3.6766 43.3868 3.86144 43.5717C4.04628 43.7565 4.29698 43.8604 4.55838 43.8604H12.197C12.4584 43.8604 12.7091 43.7565 12.8939 43.5717C13.0788 43.3868 13.1826 43.1361 13.1826 42.8747V35.9754ZM11.2114 41.8891H5.54401V36.961H11.2114V41.8891Z" fill="black"/>
<path d="M6.50636 40.3435L7.48139 41.1197C7.67972 41.2774 7.93117 41.3527 8.18353 41.3299C8.43589 41.3071 8.66978 41.1879 8.83663 40.9972L10.3876 39.2247C10.4737 39.1274 10.5396 39.0141 10.5817 38.8912C10.6238 38.7684 10.6412 38.6384 10.6329 38.5088C10.6246 38.3792 10.5908 38.2525 10.5334 38.136C10.4759 38.0196 10.3961 37.9156 10.2983 37.83C10.2006 37.7445 10.0869 37.6792 9.96384 37.6377C9.84077 37.5963 9.71071 37.5796 9.58115 37.5885C9.4516 37.5975 9.32509 37.632 9.2089 37.69C9.09272 37.7481 8.98915 37.8285 8.90414 37.9267L7.97235 38.9915L7.73346 38.8014C7.52888 38.6387 7.26804 38.5639 7.00831 38.5935C6.74859 38.6231 6.51126 38.7546 6.34854 38.9592C6.18581 39.1638 6.11102 39.4246 6.14062 39.6844C6.17022 39.9441 6.30178 40.1814 6.50636 40.3441V40.3435ZM30.9036 36.4682H16.0793C15.8179 36.4682 15.5672 36.572 15.3823 36.7569C15.1975 36.9417 15.0936 37.1924 15.0936 37.4538C15.0936 37.7152 15.1975 37.9659 15.3823 38.1507C15.5672 38.3356 15.8179 38.4394 16.0793 38.4394H30.9036C31.165 38.4394 31.4157 38.3356 31.6005 38.1507C31.7854 37.9659 31.8892 37.7152 31.8892 37.4538C31.8892 37.1924 31.7854 36.9417 31.6005 36.7569C31.4157 36.572 31.165 36.4682 30.9036 36.4682ZM26.176 40.4107H16.0793C15.8179 40.4107 15.5672 40.5145 15.3823 40.6994C15.1975 40.8842 15.0936 41.1349 15.0936 41.3963C15.0936 41.6577 15.1975 41.9084 15.3823 42.0932C15.5672 42.2781 15.8179 42.3819 16.0793 42.3819H26.176C26.4374 42.3819 26.6881 42.2781 26.873 42.0932C27.0578 41.9084 27.1616 41.6577 27.1616 41.3963C27.1616 41.1349 27.0578 40.8842 26.873 40.6994C26.6881 40.5145 26.4374 40.4107 26.176 40.4107Z" fill="black"/>
</svg>
