<svg width="70" height="60" viewBox="0 0 70 60" fill="none" xmlns="http://www.w3.org/2000/svg">
<path d="M65.7692 0H3.46154C2.54432 0.00273934 1.66546 0.368315 1.01689 1.01689C0.368316 1.66546 0.00273934 2.54432 0 3.46154V42.6923C0.00273934 43.6095 0.368316 44.4884 1.01689 45.137C1.66546 45.7855 2.54432 46.1511 3.46154 46.1538H27.6923V50.7692H21.9231C21.6171 50.7692 21.3236 50.8908 21.1072 51.1072C20.8908 51.3236 20.7692 51.6171 20.7692 51.9231V58.8462C20.7692 59.1522 20.8908 59.4457 21.1072 59.662C21.3236 59.8784 21.6171 60 21.9231 60H47.3077C47.6137 60 47.9072 59.8784 48.1236 59.662C48.34 59.4457 48.4615 59.1522 48.4615 58.8462V51.9231C48.4615 51.6171 48.34 51.3236 48.1236 51.1072C47.9072 50.8908 47.6137 50.7692 47.3077 50.7692H41.5385V46.1538H65.7692C66.6864 46.1511 67.5653 45.7855 68.2139 45.137C68.8624 44.4884 69.228 43.6095 69.2308 42.6923V3.46154C69.228 2.54432 68.8624 1.66546 68.2139 1.01689C67.5653 0.368315 66.6864 0.00273934 65.7692 0ZM46.1538 53.0769V57.6923H23.0769V53.0769H46.1538ZM30 50.7692V46.1538H39.2308V50.7692H30ZM66.9231 42.6923C66.9231 42.9983 66.8015 43.2918 66.5851 43.5082C66.3687 43.7246 66.0752 43.8462 65.7692 43.8462H3.46154C3.15552 43.8462 2.86203 43.7246 2.64565 43.5082C2.42926 43.2918 2.30769 42.9983 2.30769 42.6923V39.2308H66.9231V42.6923ZM66.9231 36.9231H2.30769V3.46154C2.30769 3.15552 2.42926 2.86203 2.64565 2.64565C2.86203 2.42926 3.15552 2.30769 3.46154 2.30769H65.7692C66.0752 2.30769 66.3687 2.42926 66.5851 2.64565C66.8015 2.86203 66.9231 3.15552 66.9231 3.46154V36.9231Z" fill="black"/>
<rect x="51" y="20" width="9" height="8" fill="#F8991D"/>
<rect x="8" y="25" width="20" height="4" fill="#225999"/>
<rect x="7" y="29" width="4" height="4" fill="#225999"/>
<rect x="25" y="29" width="4" height="4" fill="#225999"/>
<rect x="12" y="12" width="12" height="4" fill="#225999"/>
<path d="M24.2308 5.76923H11.5385C10.0084 5.76923 8.541 6.37705 7.45906 7.45899C6.37712 8.54094 5.76929 10.0084 5.76929 11.5385V33.4615C5.76929 33.7676 5.89085 34.061 6.10724 34.2774C6.32363 34.4938 6.61711 34.6154 6.92313 34.6154H10.3847C10.6424 34.6152 10.8926 34.5287 11.0954 34.3698C11.2983 34.2109 11.4421 33.9886 11.5039 33.7385L12.4385 30H23.3308L24.2654 33.7385C24.3273 33.9886 24.4711 34.2109 24.6739 34.3698C24.8768 34.5287 25.127 34.6152 25.3847 34.6154H28.8462C29.1522 34.6154 29.4457 34.4938 29.6621 34.2774C29.8785 34.061 30.0001 33.7676 30.0001 33.4615V11.5385C30.0001 10.0084 29.3922 8.54094 28.3103 7.45899C27.2283 6.37705 25.7609 5.76923 24.2308 5.76923ZM9.48467 32.3077H8.07698V30H10.0616L9.48467 32.3077ZM27.6924 32.3077H26.2847L25.7077 30H27.6924V32.3077ZM27.6924 27.6923H8.07698V25.3846H27.6924V27.6923ZM27.6924 23.0769H8.07698V21.9231C8.07972 21.0059 8.44529 20.127 9.09387 19.4784C9.74244 18.8298 10.6213 18.4643 11.5385 18.4615H24.2308C25.148 18.4643 26.0269 18.8298 26.6755 19.4784C27.324 20.127 27.6896 21.0059 27.6924 21.9231V23.0769ZM12.6924 14.4231C12.6924 13.964 12.8747 13.5238 13.1993 13.1992C13.5239 12.8747 13.9641 12.6923 14.4231 12.6923H21.3462C21.8052 12.6923 22.2455 12.8747 22.57 13.1992C22.8946 13.5238 23.077 13.964 23.077 14.4231C23.077 14.8821 22.8946 15.3223 22.57 15.6469C22.2455 15.9715 21.8052 16.1538 21.3462 16.1538H14.4231C13.9641 16.1538 13.5239 15.9715 13.1993 15.6469C12.8747 15.3223 12.6924 14.8821 12.6924 14.4231ZM27.6924 17.3423C26.8923 16.7326 25.9446 16.3464 24.9462 16.2231C25.2277 15.6643 25.3777 15.0487 25.3847 14.4231C25.3847 13.352 24.9592 12.3248 24.2018 11.5674C23.4445 10.8101 22.4173 10.3846 21.3462 10.3846H14.4231C13.3521 10.3846 12.3249 10.8101 11.5675 11.5674C10.8102 12.3248 10.3847 13.352 10.3847 14.4231C10.3917 15.0487 10.5417 15.6643 10.8231 16.2231C9.82478 16.3464 8.87709 16.7326 8.07698 17.3423V11.5385C8.07972 10.6212 8.44529 9.74238 9.09387 9.09381C9.74244 8.44523 10.6213 8.07966 11.5385 8.07692H24.2308C25.148 8.07966 26.0269 8.44523 26.6755 9.09381C27.324 9.74238 27.6896 10.6212 27.6924 11.5385V17.3423ZM58.8462 27.6923H51.9231V20.7692H57.5977V18.4615H50.7693C50.4633 18.4615 50.1698 18.5831 49.9534 18.7995C49.737 19.0159 49.6154 19.3094 49.6154 19.6154V28.8461C49.6154 29.1522 49.737 29.4457 49.9534 29.662C50.1698 29.8784 50.4633 30 50.7693 30H60.0001C60.3061 30 60.5996 29.8784 60.8159 29.662C61.0323 29.4457 61.1539 29.1522 61.1539 28.8461V25.3973H58.8462V27.6923Z" fill="black"/>
<path d="M55.5091 23.8777L53.8937 22.2623L52.2622 23.8939L54.5699 26.2016C54.763 26.3946 55.0182 26.513 55.2904 26.5356C55.5625 26.5582 55.8338 26.4836 56.0561 26.325L64.133 20.5558L62.7922 18.6773L55.5091 23.8777Z" fill="black"/>
<path d="M63.4616 9.23077H34.6155V11.5385H63.4616V9.23077Z" fill="black"/>
<path d="M63.4616 13.8462H34.6155V16.1539H63.4616V13.8462Z" fill="black"/>
<path d="M47.3078 18.4615H34.6155V20.7692H47.3078V18.4615Z" fill="black"/>
<path d="M47.3078 23.0769H34.6155V25.3846H47.3078V23.0769Z" fill="black"/>
<path d="M43.8462 27.6923H34.6155V30H43.8462V27.6923Z" fill="black"/>
</svg>
