<svg width="63" height="60" viewBox="0 0 63 60" fill="none" xmlns="http://www.w3.org/2000/svg">
<path d="M7.95647 5.52149C8.16408 5.52128 8.36697 5.45951 8.53947 5.344C8.71197 5.22848 8.84635 5.06441 8.9256 4.87252C9.00486 4.68064 9.02543 4.46956 8.98472 4.26598C8.94401 4.0624 8.84385 3.87547 8.6969 3.72881C8.54995 3.58216 8.36281 3.48238 8.15915 3.44208C7.95549 3.40179 7.74446 3.42279 7.55273 3.50243C7.36101 3.58207 7.19721 3.71678 7.08204 3.88952C6.96687 4.06225 6.90552 4.26526 6.90573 4.47287C6.90573 4.61075 6.93292 4.74729 6.98575 4.87465C7.03858 5.00201 7.11601 5.11771 7.21361 5.21511C7.31121 5.31251 7.42706 5.38971 7.55453 5.44228C7.682 5.49485 7.81859 5.52177 7.95647 5.52149ZM11.2075 5.52149C11.4152 5.5217 11.6183 5.46029 11.7911 5.34503C11.9639 5.22977 12.0986 5.06584 12.1782 4.87399C12.2578 4.68215 12.2786 4.471 12.2382 4.26728C12.1977 4.06356 12.0977 3.87643 11.9508 3.72957C11.804 3.5827 11.6168 3.48271 11.4131 3.44224C11.2094 3.40177 10.9983 3.42265 10.8064 3.50223C10.6146 3.58181 10.4506 3.71651 10.3354 3.88929C10.2201 4.06208 10.1587 4.26517 10.1589 4.47287C10.1589 4.75098 10.2694 5.0177 10.466 5.21436C10.6627 5.41101 10.9294 5.52149 11.2075 5.52149ZM5.01884 5.52149C5.22654 5.5217 5.42963 5.46029 5.60241 5.34503C5.7752 5.22977 5.9099 5.06584 5.98948 4.87399C6.06906 4.68215 6.08994 4.471 6.04947 4.26728C6.009 4.06356 5.90901 3.87643 5.76214 3.72957C5.61528 3.5827 5.42814 3.48271 5.22442 3.44224C5.02071 3.40177 4.80956 3.42265 4.61771 3.50223C4.42586 3.58181 4.26194 3.71651 4.14668 3.88929C4.03142 4.06208 3.97001 4.26517 3.97022 4.47287C3.97022 4.75098 4.0807 5.0177 4.27735 5.21436C4.47401 5.41101 4.74073 5.52149 5.01884 5.52149ZM7.99578 48.1167H36.485C36.7668 48.1167 37.037 48.0047 37.2363 47.8055C37.4355 47.6062 37.5474 47.336 37.5474 47.0542C37.5474 46.7725 37.4355 46.5022 37.2363 46.303C37.037 46.1037 36.7668 45.9918 36.485 45.9918H7.99578C7.71401 45.9918 7.44378 46.1037 7.24453 46.303C7.04529 46.5022 6.93335 46.7725 6.93335 47.0542C6.93335 47.336 7.04529 47.6062 7.24453 47.8055C7.44378 48.0047 7.71401 48.1167 7.99578 48.1167Z" fill="#142238"/>
<path d="M62.2874 54.3032L53.7816 41.8047C53.623 41.5719 53.3785 41.4116 53.1018 41.359C52.825 41.3064 52.5388 41.3658 52.3058 41.5242L50.2224 42.9426L48.9783 41.1067C50.929 39.5593 52.4428 37.5303 53.3703 35.2196C54.2979 32.909 54.6073 30.3965 54.268 27.9298C53.9286 25.4631 52.9523 23.1275 51.4353 21.1531C49.9182 19.1788 47.9128 17.6338 45.6167 16.6707V2.94188C45.6159 2.16191 45.3057 1.41412 44.7542 0.86259C44.2026 0.311062 43.4548 0.000843676 42.6749 0H2.94189C2.16191 0.000843676 1.41412 0.311062 0.862592 0.86259C0.311064 1.41412 0.000845413 2.16191 1.73736e-06 2.94188V57.0464C-0.000845839 57.828 0.308457 58.578 0.860016 59.1317C1.41157 59.6855 2.16032 59.9977 2.94189 60H42.6696C43.4511 59.9977 44.1999 59.6855 44.7514 59.1317C45.303 58.578 45.6123 57.828 45.6114 57.0464V43.1073C46.1654 42.8772 46.7034 42.6106 47.2221 42.3094L48.4662 44.1378L46.3828 45.5551C46.1499 45.7137 45.9896 45.9582 45.937 46.2349C45.8844 46.5116 45.9439 46.7979 46.1023 47.0308L54.6092 59.5293C54.7677 59.7622 55.0123 59.9225 55.289 59.9751C55.5657 60.0277 55.852 59.9683 56.0849 59.8098L62.008 55.78C62.1234 55.7015 62.2223 55.601 62.2988 55.4843C62.3754 55.3676 62.4282 55.2369 62.4543 55.0997C62.4803 54.9626 62.4791 54.8217 62.4507 54.685C62.4222 54.5483 62.366 54.4186 62.2874 54.3032ZM50.1597 23.0187C51.9801 25.6979 52.6621 28.9903 52.0559 32.1721C51.4496 35.3539 49.6047 38.1648 46.9267 39.9869C46.0765 40.5697 45.1531 41.0377 44.1803 41.3787C43.1992 41.7437 42.1724 41.9714 41.129 42.0555C38.9628 42.2497 36.7841 41.8611 34.8187 40.9299C32.8532 39.9986 31.1727 38.5587 29.9511 36.7592C29.8013 36.5467 29.6568 36.3151 29.5177 36.0771C29.3785 35.8391 29.2435 35.5895 29.1118 35.3271C28.3355 33.7674 27.9027 32.0594 27.8426 30.3183C27.7825 28.5772 28.0964 26.8434 28.7633 25.2339C29.5089 23.4059 30.6925 21.7892 32.2099 20.5263C32.519 20.2596 32.8473 20.0142 33.1767 19.7826C33.4508 19.5956 33.7334 19.4235 34.0203 19.2598C34.1116 19.2078 34.2062 19.1621 34.2986 19.1132C34.4973 19.007 34.697 18.9007 34.9 18.8083C35.0136 18.7562 35.1284 18.7084 35.2421 18.6596C35.4312 18.5788 35.6203 18.5013 35.8126 18.4301C35.9358 18.3844 36.0591 18.3419 36.1823 18.3005C36.3736 18.2367 36.5659 18.1779 36.7592 18.1241C36.8835 18.0901 37.0089 18.055 37.1343 18.0242C37.3361 17.9743 37.538 17.9329 37.742 17.8935C37.861 17.8702 37.98 17.8447 38.1 17.8255C38.3306 17.7884 38.5622 17.7618 38.7938 17.7374C38.8883 17.7278 38.9829 17.7129 39.0785 17.7055C39.4047 17.6789 39.7319 17.6651 40.0602 17.6662C40.3885 17.6672 40.7455 17.6821 41.0886 17.7129H41.1322C42.177 17.8075 43.2057 18.0331 44.1941 18.3844C46.6247 19.2559 48.7143 20.8792 50.1597 23.0187ZM40.1601 15.5434C40.1452 15.5434 40.1314 15.5434 40.1176 15.5434C40.056 15.5434 39.9965 15.5434 39.9359 15.5434C38.758 15.5456 37.5851 15.698 36.4458 15.9971H36.4256C36.0523 16.0948 35.6844 16.2075 35.3217 16.335L35.2155 16.3721C34.8893 16.489 34.5674 16.6197 34.2487 16.761L34.0606 16.8439C33.7695 16.9777 33.4848 17.1243 33.2022 17.2784C33.1268 17.3188 33.0503 17.356 32.9748 17.3984C32.6317 17.5939 32.2938 17.8011 31.9644 18.0253C31.6351 18.2495 31.378 18.4503 31.1283 18.6542H7.99589C7.71412 18.6542 7.44388 18.7662 7.24464 18.9654C7.04539 19.1647 6.93346 19.4349 6.93346 19.7167C6.93346 19.9985 7.04539 20.2687 7.24464 20.4679C7.44388 20.6672 7.71412 20.7791 7.99589 20.7791H29.0045C28.8983 20.9098 28.7835 21.0362 28.6858 21.1701C28.6199 21.2562 28.5423 21.3337 28.4733 21.4208C28.2087 21.7842 27.9761 22.1645 27.7466 22.5534C27.6828 22.6596 27.6053 22.7659 27.5437 22.8721C27.3822 23.1622 27.2547 23.4671 27.1187 23.7667H7.99589C7.71412 23.7667 7.44388 23.8786 7.24464 24.0779C7.04539 24.2771 6.93346 24.5473 6.93346 24.8291C6.93346 25.1109 7.04539 25.3811 7.24464 25.5804C7.44388 25.7796 7.71412 25.8916 7.99589 25.8916H26.2879C26.2762 25.9319 26.2581 25.9702 26.2464 26.0116C26.2124 26.1349 26.1954 26.2624 26.1646 26.3867C26.0786 26.7298 25.9999 27.0741 25.9394 27.4236C25.9256 27.5043 25.9001 27.583 25.8873 27.6637C25.8693 27.7753 25.8693 27.89 25.8544 28.0016C25.8098 28.3362 25.7779 28.6709 25.7566 29.0087C25.7449 29.2032 25.7322 29.3955 25.7279 29.591C25.7279 29.6972 25.7131 29.8035 25.7131 29.9097H5.50342V14.6446H40.1601V15.5434ZM27.5171 36.8633C27.5405 36.9037 27.566 36.9377 27.5883 36.977C27.7838 37.3234 27.9856 37.6559 28.2002 37.9672C28.9446 39.0537 29.8332 40.0341 30.8415 40.8815H7.99908C7.71731 40.8815 7.44707 40.9934 7.24783 41.1926C7.04858 41.3919 6.93665 41.6621 6.93665 41.9439C6.93665 42.2257 7.04858 42.4959 7.24783 42.6952C7.44707 42.8944 7.71731 43.0063 7.99908 43.0063H34.2561C34.6103 43.1615 34.9683 43.3031 35.3302 43.4313C35.3876 43.4515 35.4429 43.477 35.5013 43.4961L35.5735 43.5163C36.0028 43.658 36.4369 43.7787 36.8761 43.8786L37.0301 43.9137C37.0599 43.92 37.0896 43.9222 37.1183 43.9285C37.5677 44.022 38.0203 44.1007 38.4761 44.1516H38.4952C38.9576 44.2005 39.4221 44.226 39.887 44.2281C39.9359 44.2281 39.9837 44.2356 40.0315 44.2356C40.0581 44.2356 40.0846 44.2356 40.1101 44.2356C40.1356 44.2356 40.1463 44.2356 40.1643 44.2356V52.1369H5.50342V36.8633H27.5171ZM2.94189 2.12487H42.6696C42.8862 2.12515 43.0938 2.21132 43.247 2.36448C43.4001 2.51764 43.4863 2.72529 43.4866 2.94188V7.13426H2.12487V2.94188C2.12515 2.72529 2.21132 2.51764 2.36448 2.36448C2.51764 2.21132 2.72529 2.12515 2.94189 2.12487ZM43.4866 57.0464C43.4877 57.2645 43.4024 57.4742 43.2492 57.6295C43.0961 57.7849 42.8877 57.8732 42.6696 57.8751H2.94189C2.72457 57.8707 2.51757 57.7816 2.36496 57.6268C2.21236 57.472 2.12621 57.2638 2.12487 57.0464V9.25913H43.4866V15.961C43.409 15.9418 43.3293 15.9302 43.2507 15.9121C43.1498 15.8887 43.0488 15.8707 42.9479 15.8494C42.729 15.8048 42.5102 15.7591 42.2892 15.724V13.5822C42.2892 13.3004 42.1773 13.0302 41.978 12.8309C41.7788 12.6317 41.5085 12.5197 41.2268 12.5197H4.44098C4.15921 12.5197 3.88897 12.6317 3.68973 12.8309C3.49048 13.0302 3.37855 13.3004 3.37855 13.5822V30.9785C3.37855 31.2603 3.49048 31.5305 3.68973 31.7298C3.88897 31.929 4.15921 32.0409 4.44098 32.0409H25.8841C26.0231 32.9602 26.2516 33.8636 26.5662 34.7385H4.44098C4.15921 34.7385 3.88897 34.8504 3.68973 35.0496C3.49048 35.2489 3.37855 35.5191 3.37855 35.8009V53.1972C3.37855 53.479 3.49048 53.7492 3.68973 53.9485C3.88897 54.1477 4.15921 54.2597 4.44098 54.2597H41.2225C41.5043 54.2597 41.7745 54.1477 41.9738 53.9485C42.173 53.7492 42.285 53.479 42.285 53.1972V44.0603L42.3232 44.0528C42.4294 44.0369 42.5261 44.0146 42.6281 43.9965C42.8672 43.953 43.1052 43.9052 43.341 43.8478C43.3878 43.8372 43.4356 43.8308 43.4823 43.8191L43.4866 57.0464ZM55.7673 57.4555L48.4566 46.7142L52.6225 43.8786L59.9331 54.6209L55.7673 57.4555Z" fill="#142238"/>
<path d="M50.1596 23.0187C48.7145 20.8809 46.6262 19.2588 44.1972 18.3875C43.2088 18.0362 42.1801 17.8106 41.1353 17.7161H41.0917C40.7489 17.6856 40.4061 17.6701 40.0633 17.6693C39.735 17.6693 39.4078 17.6821 39.0816 17.7087C38.986 17.7161 38.8914 17.731 38.7969 17.7405C38.5653 17.765 38.3337 17.7915 38.1031 17.8287C37.9831 17.8478 37.8641 17.8733 37.7451 17.8967C37.6781 17.9095 37.6123 17.9254 37.5464 17.9392C38.0959 18.0528 38.6371 18.2029 39.1666 18.3886C41.2861 19.1521 43.1531 20.4868 44.5616 22.245C45.97 24.0033 46.8648 26.1167 47.1473 28.3517C47.4297 30.5867 47.0887 32.8563 46.162 34.9096C45.2353 36.963 43.7589 38.7201 41.896 39.9869C41.0458 40.5697 40.1224 41.0377 39.1496 41.3787C38.6362 41.5675 38.1101 41.7194 37.5751 41.8334C38.7422 42.0828 39.9398 42.1576 41.1289 42.0554C42.1723 41.9714 43.1991 41.7437 44.1802 41.3787C45.153 41.0377 46.0765 40.5697 46.9266 39.9869C49.6058 38.1648 51.4516 35.353 52.0579 32.1702C52.6642 28.9873 51.9813 25.6939 50.1596 23.0145V23.0187Z" fill="#225999"/>
<path d="M52.6219 43.8793L48.4561 46.7145L55.7667 57.4564L59.9326 54.6212L52.6219 43.8793Z" fill="#F8991D"/>
</svg>
