<svg width="23" height="17" viewBox="0 0 23 17" fill="none" xmlns="http://www.w3.org/2000/svg">
<path d="M17.3713 5.58293H0.929883C0.417773 5.58293 0 5.9999 0 6.51104C0 7.02217 0.417773 7.43915 0.929883 7.43915H17.3758C17.8879 7.43915 18.3057 7.02217 18.3057 6.51104C18.3012 5.9999 17.8879 5.58293 17.3713 5.58293ZM22.0701 0.893066H0.929883C0.417773 0.893066 0 1.31004 0 1.82117C0 2.33231 0.417773 2.74928 0.929883 2.74928H22.0701C22.5822 2.74928 23 2.33231 23 1.82117C23 1.31004 22.5822 0.893066 22.0701 0.893066ZM22.0701 10.2728H0.929883C0.417773 10.2728 0 10.6898 0 11.2009C0 11.712 0.417773 12.129 0.929883 12.129H22.0701C22.5822 12.129 23 11.712 23 11.2009C23 10.6898 22.5822 10.2728 22.0701 10.2728ZM17.3713 14.9627H0.929883C0.417773 14.9627 0 15.3796 0 15.8908C0 16.4019 0.417773 16.8189 0.929883 16.8189H17.3758C17.8879 16.8189 18.3057 16.4019 18.3057 15.8908C18.3057 15.3796 17.8879 14.9627 17.3713 14.9627Z" fill="#200E32"/>
</svg>
