<svg width="23" height="17" viewBox="0 0 23 17" fill="none" xmlns="http://www.w3.org/2000/svg">
<path d="M17.3713 5.58305H0.929883C0.417773 5.58305 0 6.00003 0 6.51116C0 7.02229 0.417773 7.43927 0.929883 7.43927H17.3758C17.8879 7.43927 18.3057 7.02229 18.3057 6.51116C18.3012 6.00003 17.8879 5.58305 17.3713 5.58305ZM22.0701 0.893188H0.929883C0.417773 0.893188 0 1.31016 0 1.8213C0 2.33243 0.417773 2.74941 0.929883 2.74941H22.0701C22.5822 2.74941 23 2.33243 23 1.8213C23 1.31016 22.5822 0.893188 22.0701 0.893188ZM22.0701 10.2729H0.929883C0.417773 10.2729 0 10.6899 0 11.201C0 11.7122 0.417773 12.1291 0.929883 12.1291H22.0701C22.5822 12.1291 23 11.7122 23 11.201C23 10.6899 22.5822 10.2729 22.0701 10.2729ZM17.3713 14.9628H0.929883C0.417773 14.9628 0 15.3798 0 15.8909C0 16.402 0.417773 16.819 0.929883 16.819H17.3758C17.8879 16.819 18.3057 16.402 18.3057 15.8909C18.3057 15.3798 17.8879 14.9628 17.3713 14.9628Z" fill="white"/>
</svg>
