<svg class="burger__icon burger__icon--close" width="16" height="16" viewBox="0 0 16 16" xmlns="http://www.w3.org/2000/svg" fill="none">
<path d="M9.044 8l6.141-6.141c.121-.142.185-.324.178-.51-.007-.186-.085-.363-.216-.495-.132-.132-.309-.209-.495-.216-.186-.007-.369.056-.51.178l-6.141 6.141-6.141-6.148c-.139-.139-.329-.218-.526-.218s-.386.078-.526.218c-.139.139-.218.329-.218.526s.078.386.218.526l6.148 6.141-6.148 6.141c-.078.066-.141.148-.185.24-.044.092-.069.192-.073.294-.004.102.013.204.05.299.037.095.094.181.166.254.072.072.159.129.254.166.095.037.197.054.299.05.102-.004.202-.029.294-.073.092-.044.174-.107.24-.185l6.148-6.141 6.141 6.141c.142.121.324.185.51.178.187-.007.363-.085.495-.216.132-.132.209-.309.216-.495.007-.186-.056-.369-.178-.51l-6.141-6.141z" fill="#000"></path></svg>