<svg width="50" height="50" viewBox="0 0 50 50" fill="none" xmlns="http://www.w3.org/2000/svg">
<path d="M12.2222 29.6308C11.9875 29.6308 11.7624 29.5376 11.5964 29.3716C11.4304 29.2056 11.3372 28.9805 11.3372 28.7457V21.2227C11.3372 20.988 11.4304 20.7629 11.5964 20.5969C11.7624 20.4309 11.9875 20.3376 12.2222 20.3376H16.2935C16.5282 20.3376 16.7534 20.4309 16.9193 20.5969C17.0853 20.7629 17.1786 20.988 17.1786 21.2227C17.1786 21.4574 17.0853 21.6826 16.9193 21.8485C16.7534 22.0145 16.5282 22.1078 16.2935 22.1078H13.1073V28.7457C13.1073 28.9805 13.014 29.2056 12.8481 29.3716C12.6821 29.5376 12.457 29.6308 12.2222 29.6308Z" fill="#F8991D"/>
<path d="M15.1314 25.8684H12.2222C11.9875 25.8684 11.7624 25.7751 11.5964 25.6091C11.4304 25.4432 11.3372 25.218 11.3372 24.9833C11.3372 24.7486 11.4304 24.5235 11.5964 24.3575C11.7624 24.1915 11.9875 24.0982 12.2222 24.0982H15.1314C15.3662 24.0982 15.5913 24.1915 15.7573 24.3575C15.9232 24.5235 16.0165 24.7486 16.0165 24.9833C16.0165 25.218 15.9232 25.4432 15.7573 25.6091C15.5913 25.7751 15.3662 25.8684 15.1314 25.8684ZM23.4519 29.6308C23.229 29.6314 23.0141 29.5472 22.8509 29.3953L20.2692 27.0057V28.7431C20.2692 28.9778 20.176 29.2029 20.01 29.3689C19.844 29.5349 19.6189 29.6281 19.3841 29.6281C19.1494 29.6281 18.9243 29.5349 18.7583 29.3689C18.5923 29.2029 18.4991 28.9778 18.4991 28.7431V21.22C18.4991 20.9853 18.5923 20.7602 18.7583 20.5942C18.9243 20.4282 19.1494 20.335 19.3841 20.335H21.5702C22.304 20.3252 23.0116 20.6074 23.5374 21.1193C24.0631 21.6313 24.3639 22.3312 24.3737 23.0649C24.3834 23.7987 24.1013 24.5063 23.5893 25.032C23.0773 25.5578 22.3775 25.8586 21.6437 25.8684L24.0528 28.0978C24.1832 28.2188 24.274 28.3761 24.3136 28.5494C24.3532 28.7227 24.3397 28.9039 24.2749 29.0695C24.21 29.235 24.0968 29.3771 23.95 29.4774C23.8032 29.5777 23.6297 29.6314 23.4519 29.6317V29.6308ZM20.2692 24.0982H21.5702C21.7036 24.1022 21.8363 24.0794 21.9606 24.0311C22.085 23.9828 22.1984 23.9101 22.2941 23.8172C22.3898 23.7243 22.4658 23.6132 22.5178 23.4903C22.5698 23.3675 22.5965 23.2355 22.5965 23.1021C22.5965 22.9687 22.5698 22.8367 22.5178 22.7139C22.4658 22.591 22.3898 22.4799 22.2941 22.387C22.1984 22.2941 22.085 22.2214 21.9606 22.1731C21.8363 22.1248 21.7036 22.102 21.5702 22.106H20.2692V24.0982ZM30.6138 29.6308H26.5425C26.3078 29.6308 26.0827 29.5375 25.9167 29.3715C25.7507 29.2056 25.6575 28.9804 25.6575 28.7457V21.2227C25.6575 20.9879 25.7507 20.7628 25.9167 20.5968C26.0827 20.4309 26.3078 20.3376 26.5425 20.3376H30.6138C30.8485 20.3376 31.0737 20.4309 31.2396 20.5968C31.4056 20.7628 31.4989 20.9879 31.4989 21.2227C31.4989 21.4574 31.4056 21.6825 31.2396 21.8485C31.0737 22.0145 30.8485 22.1077 30.6138 22.1077H27.4276V27.8606H30.6138C30.8485 27.8606 31.0737 27.9539 31.2396 28.1199C31.4056 28.2859 31.4989 28.511 31.4989 28.7457C31.4989 28.9804 31.4056 29.2056 31.2396 29.3715C31.0737 29.5375 30.8485 29.6308 30.6138 29.6308Z" fill="#F8991D"/>
<path d="M29.4032 25.8684H26.5462C26.3115 25.8684 26.0863 25.7752 25.9204 25.6092C25.7544 25.4432 25.6611 25.2181 25.6611 24.9833C25.6611 24.7486 25.7544 24.5235 25.9204 24.3575C26.0863 24.1915 26.3115 24.0983 26.5462 24.0983H29.4032C29.6379 24.0983 29.863 24.1915 30.029 24.3575C30.195 24.5235 30.2882 24.7486 30.2882 24.9833C30.2882 25.2181 30.195 25.4432 30.029 25.6092C29.863 25.7752 29.6379 25.8684 29.4032 25.8684ZM37.7759 29.6308H33.7046C33.4698 29.6308 33.2447 29.5376 33.0787 29.3716C32.9128 29.2056 32.8195 28.9805 32.8195 28.7457V21.2227C32.8195 20.988 32.9128 20.7629 33.0787 20.5969C33.2447 20.4309 33.4698 20.3376 33.7046 20.3376H37.7759C38.0106 20.3376 38.2357 20.4309 38.4017 20.5969C38.5677 20.7629 38.6609 20.988 38.6609 21.2227C38.6609 21.4574 38.5677 21.6826 38.4017 21.8485C38.2357 22.0145 38.0106 22.1078 37.7759 22.1078H34.5896V27.8607H37.7759C38.0106 27.8607 38.2357 27.9539 38.4017 28.1199C38.5677 28.2859 38.6609 28.511 38.6609 28.7457C38.6609 28.9805 38.5677 29.2056 38.4017 29.3716C38.2357 29.5376 38.0106 29.6308 37.7759 29.6308Z" fill="#F8991D"/>
<path d="M36.5643 25.8685H33.7082C33.4734 25.8685 33.2483 25.7753 33.0823 25.6093C32.9164 25.4433 32.8231 25.2182 32.8231 24.9835C32.8231 24.7487 32.9164 24.5236 33.0823 24.3576C33.2483 24.1916 33.4734 24.0984 33.7082 24.0984H36.5643C36.799 24.0984 37.0241 24.1916 37.1901 24.3576C37.3561 24.5236 37.4493 24.7487 37.4493 24.9835C37.4493 25.2182 37.3561 25.4433 37.1901 25.6093C37.0241 25.7753 36.799 25.8685 36.5643 25.8685Z" fill="#F8991D"/>
<path d="M24.9991 49.9828C24.8682 49.9827 24.739 49.9537 24.6207 49.8977C24.5023 49.8416 24.3979 49.7601 24.315 49.6589L19.8472 44.2042L13.2508 46.6966C13.1281 46.743 12.9966 46.7616 12.8658 46.7509C12.735 46.7403 12.6083 46.7007 12.4947 46.6351C12.3811 46.5694 12.2835 46.4793 12.209 46.3713C12.1345 46.2633 12.085 46.1401 12.0639 46.0106L10.931 39.0505L3.97003 37.9176C3.8406 37.8965 3.71749 37.8468 3.6096 37.7723C3.50171 37.6977 3.41173 37.6002 3.34617 37.4866C3.28062 37.373 3.24112 37.2463 3.23054 37.1155C3.21996 36.9848 3.23856 36.8534 3.28499 36.7308L5.77821 30.1353L0.323573 25.6675C0.222414 25.5845 0.140924 25.48 0.0849725 25.3617C0.0290209 25.2434 0 25.1142 0 24.9833C0 24.8525 0.0290209 24.7232 0.0849725 24.6049C0.140924 24.4866 0.222414 24.3822 0.323573 24.2992L5.77821 19.8314L3.28588 13.235C3.2396 13.1124 3.22113 12.9811 3.23179 12.8505C3.24245 12.7199 3.28197 12.5932 3.34752 12.4798C3.41306 12.3663 3.50298 12.2688 3.61079 12.1943C3.71859 12.1198 3.8416 12.0702 3.97092 12.049L10.9319 10.9153L12.0648 3.95513C12.0858 3.82562 12.1354 3.70241 12.2099 3.59441C12.2844 3.48642 12.382 3.39633 12.4956 3.33068C12.6092 3.26503 12.7359 3.22546 12.8667 3.21483C12.9975 3.20419 13.129 3.22277 13.2517 3.2692L19.8472 5.76242L24.315 0.307785C24.4007 0.211016 24.5061 0.133545 24.624 0.0804895C24.7419 0.0274338 24.8698 0 24.9991 0C25.1284 0 25.2563 0.0274338 25.3742 0.0804895C25.4921 0.133545 25.5975 0.211016 25.6833 0.307785L30.1511 5.76242L36.7474 3.27009C36.8562 3.229 36.9719 3.20973 37.0881 3.21338C37.2043 3.21704 37.3186 3.24353 37.4245 3.29136C37.5305 3.3392 37.6259 3.40743 37.7055 3.49216C37.7851 3.57689 37.8472 3.67646 37.8883 3.78519C37.9294 3.89393 37.9486 4.00969 37.945 4.12586C37.9413 4.24204 37.9148 4.35636 37.867 4.4623C37.8192 4.56824 37.7509 4.66372 37.6662 4.74328C37.5815 4.82285 37.4819 4.88495 37.3732 4.92604L30.182 7.64318C30.0089 7.70883 29.8195 7.71852 29.6406 7.67089C29.4616 7.62325 29.3022 7.5207 29.1846 7.37766L24.9991 2.26554L20.8136 7.37589C20.6961 7.51893 20.5366 7.62148 20.3576 7.66912C20.1787 7.71675 19.9893 7.70706 19.8162 7.64141L13.6384 5.30839L12.5764 11.8286C12.5465 12.0117 12.4599 12.1808 12.3287 12.312C12.1975 12.4432 12.0284 12.5298 11.8453 12.5597L5.32418 13.6218L7.65808 19.8004C7.72373 19.9735 7.73342 20.1629 7.68579 20.3418C7.63816 20.5208 7.5356 20.6803 7.39257 20.7979L2.28133 24.9833L7.39168 29.1688C7.53472 29.2864 7.63727 29.4459 7.6849 29.6248C7.73254 29.8037 7.72285 29.9931 7.6572 30.1662L5.32418 36.344L11.8453 37.4061C12.0284 37.4359 12.1975 37.5226 12.3287 37.6537C12.4599 37.7849 12.5465 37.954 12.5764 38.1371L13.6384 44.6583L19.8171 42.3235C19.9902 42.2578 20.1796 42.2481 20.3585 42.2958C20.5375 42.3434 20.6969 42.4459 20.8145 42.589L24.9991 47.7011L29.1846 42.5908C29.2573 42.4983 29.3478 42.4213 29.4507 42.3642C29.5536 42.3071 29.6669 42.2711 29.7839 42.2583C29.9008 42.2456 30.0192 42.2562 30.132 42.2897C30.2448 42.3232 30.3498 42.3789 30.4408 42.4534C30.5319 42.528 30.6071 42.62 30.6622 42.724C30.7173 42.8279 30.751 42.9419 30.7616 43.0591C30.7721 43.1763 30.7591 43.2944 30.7234 43.4065C30.6877 43.5187 30.6301 43.6226 30.5538 43.7121L25.6859 49.6589C25.6026 49.7604 25.4978 49.8422 25.379 49.8982C25.2602 49.9543 25.1305 49.9831 24.9991 49.9828Z" fill="#F8991D"/>
<path d="M37.0598 46.756C36.9528 46.756 36.8467 46.7368 36.7465 46.6993L29.5563 43.9813C29.3367 43.8983 29.159 43.7315 29.0624 43.5176C28.9658 43.3036 28.9582 43.0601 29.0412 42.8405C29.1241 42.6209 29.2909 42.4433 29.5049 42.3466C29.7188 42.25 29.9624 42.2424 30.182 42.3254L36.3597 44.6602L37.4218 38.1399C37.4517 37.9567 37.5385 37.7875 37.6698 37.6563C37.8012 37.5251 37.9705 37.4385 38.1537 37.4089L44.674 36.3468L42.3401 30.1682C42.2744 29.995 42.2648 29.8056 42.3124 29.6267C42.36 29.4478 42.4626 29.2883 42.6056 29.1707L47.7168 24.9835L42.6065 20.798C42.4635 20.6804 42.3609 20.5209 42.3133 20.342C42.2656 20.1631 42.2753 19.9737 42.341 19.8005L44.6758 13.6228L38.1546 12.5607C38.0399 12.542 37.93 12.5008 37.8312 12.4395C37.7324 12.3783 37.6466 12.2982 37.5788 12.2038C37.511 12.1094 37.4624 12.0026 37.4358 11.8894C37.4093 11.7762 37.4052 11.659 37.424 11.5442C37.4428 11.4295 37.484 11.3196 37.5452 11.2208C37.6065 11.122 37.6866 11.0363 37.7809 10.9684C37.8753 10.9006 37.9822 10.852 38.0953 10.8254C38.2085 10.7989 38.3258 10.7948 38.4405 10.8136L46.0299 12.0527C46.1593 12.0738 46.2825 12.1235 46.3903 12.198C46.4982 12.2726 46.5882 12.3702 46.6538 12.4838C46.7193 12.5973 46.7588 12.7241 46.7694 12.8548C46.78 12.9855 46.7614 13.1169 46.715 13.2396L44.2217 19.8351L49.6764 24.3029C49.7775 24.3859 49.859 24.4903 49.915 24.6086C49.9709 24.7269 49.9999 24.8561 49.9999 24.987C49.9999 25.1179 49.9709 25.2471 49.915 25.3654C49.859 25.4837 49.7775 25.5881 49.6764 25.6712L44.2217 30.139L46.7141 36.7353C46.7605 36.858 46.7791 36.9895 46.7684 37.1203C46.7578 37.2511 46.7182 37.3778 46.6526 37.4914C46.5869 37.605 46.4969 37.7026 46.3889 37.7771C46.2809 37.8516 46.1577 37.9012 46.0281 37.9222L39.0663 39.056L37.9334 46.0161C37.8996 46.2234 37.7931 46.4119 37.6331 46.5479C37.473 46.684 37.2699 46.7587 37.0598 46.7587V46.756Z" fill="#F8991D"/>
</svg>
