<svg width="52" height="52" viewBox="0 0 52 52" fill="none" xmlns="http://www.w3.org/2000/svg">
<path d="M26 51C39.8071 51 51 39.8071 51 26C51 12.1929 39.8071 1 26 1C12.1929 1 1 12.1929 1 26C1 39.8071 12.1929 51 26 51Z" stroke="#F8991D" stroke-width="2" stroke-linecap="round" stroke-linejoin="round"/>
<path d="M15.1092 44.8557L16.7222 42.0621M26.0023 10.6514L25.9999 26.0002L26.0023 10.6514ZM38.2783 26.0012H26.024H38.2783ZM25.9999 47.7634V44.5376V47.7634ZM4.23718 26.0002H7.46299H4.23718ZM26.015 4.24707V7.47288V4.24707ZM47.768 26.0248H44.5422H47.768ZM7.16446 36.8857L9.95807 35.2728L7.16446 36.8857ZM15.1306 7.15707L16.7435 9.95051L15.1306 7.15707ZM44.8582 15.1405L42.0646 16.7534L44.8582 15.1405ZM36.8746 44.8681L35.2617 42.0745L36.8746 44.8681ZM7.16712 15.1348L9.96073 16.7477L7.16712 15.1348ZM36.896 7.16928L35.2832 9.96291L36.896 7.16928ZM44.8458 36.9058L42.0522 35.2929L44.8458 36.9058Z" stroke="#F8991D" stroke-width="2" stroke-linecap="round" stroke-linejoin="round"/>
</svg>
