<svg width="21" height="22" viewBox="0 0 21 22" fill="none" xmlns="http://www.w3.org/2000/svg">
<path d="M18.4343 5.63648C18.0726 5.38768 17.6606 5.2213 17.2275 5.1491C16.7945 5.07691 16.3508 5.10064 15.9279 5.21864L11.5378 6.45166L11.6903 4.92351C11.7452 4.25773 11.6379 3.58856 11.3774 2.9734C11.1169 2.35823 10.7111 1.81544 10.1947 1.39158C9.67838 0.967711 9.06691 0.675429 8.41279 0.539801C7.75866 0.404172 7.08139 0.429246 6.43908 0.612871C6.254 0.665272 6.08795 0.769943 5.96086 0.914336C5.83376 1.05873 5.75101 1.23672 5.72252 1.42695L4.71196 8.3688L2.44951 9.00424C1.6835 9.21938 1.03433 9.73001 0.644809 10.4238C0.255289 11.1176 0.157325 11.9377 0.372469 12.7037L2.26527 19.4429C2.48041 20.2089 2.99104 20.8581 3.68482 21.2476C4.3786 21.6371 5.1987 21.7351 5.96471 21.5199L18.2205 18.0777C18.8961 17.8877 19.4837 17.4669 19.8811 16.8884C20.2784 16.31 20.4604 15.6105 20.3954 14.9117L19.7253 7.82908C19.6839 7.39133 19.5468 6.96803 19.3237 6.58914C19.1007 6.21024 18.797 5.88501 18.4343 5.63648ZM7.3494 19.0536L5.42391 19.5944C5.16857 19.6662 4.8952 19.6335 4.66394 19.5037C4.43268 19.3738 4.26247 19.1574 4.19076 18.9021L2.29796 12.1629C2.22625 11.9075 2.2589 11.6342 2.38874 11.4029C2.51858 11.1717 2.73497 11.0014 2.99031 10.9297L4.9158 10.3889L7.3494 19.0536ZM17.7506 8.00977L18.4207 15.0924C18.4427 15.3282 18.3802 15.5641 18.2445 15.7582C18.1088 15.9523 17.9087 16.0919 17.6797 16.1522L9.27489 18.5128L6.62767 9.08756L7.5915 2.46007C7.88312 2.46294 8.17098 2.52624 8.43691 2.64597C8.70284 2.7657 8.94106 2.93926 9.13654 3.15569C9.33202 3.37212 9.48051 3.62672 9.57263 3.90343C9.66476 4.18014 9.69853 4.47293 9.6718 4.76335L9.54821 6.28339C9.52122 6.60492 9.57242 6.92821 9.69744 7.22567C9.82246 7.52312 10.0176 7.78591 10.2662 7.99161C10.5148 8.19731 10.8095 8.33981 11.1251 8.40694C11.4407 8.47408 11.7678 8.46386 12.0786 8.37715L16.4687 7.14413C16.6101 7.10417 16.7586 7.09586 16.9035 7.11978C17.0485 7.14369 17.1864 7.19925 17.3074 7.28251C17.4303 7.36364 17.5337 7.47089 17.6103 7.5966C17.6869 7.72232 17.7348 7.8634 17.7506 8.00977Z" fill="white"/>
</svg>
