<svg width="25" height="14" viewBox="0 0 25 14" fill="none" xmlns="http://www.w3.org/2000/svg">
<path d="M24.9851 6.99699C24.9831 6.73752 24.8802 6.48897 24.6983 6.30378L24.6922 6.29176L18.6743 0.281204C18.4851 0.0987258 18.2317 -0.00224582 17.9688 3.66088e-05C17.7058 0.00231903 17.4542 0.107674 17.2683 0.293408C17.0823 0.479142 16.9768 0.730396 16.9745 0.993054C16.9722 1.25571 17.0733 1.50876 17.256 1.69769L21.5609 5.99924L1.91626 5.99924C1.65025 5.99924 1.39514 6.10479 1.20704 6.29265C1.01894 6.48052 0.91327 6.73532 0.91327 7.001C0.91327 7.26668 1.01894 7.52149 1.20704 7.70935C1.39514 7.89722 1.65025 8.00276 1.91626 8.00276L21.5609 8.00276L17.256 12.3023C17.0733 12.4912 16.9722 12.7443 16.9745 13.0069C16.9768 13.2696 17.0823 13.5209 17.2683 13.7066C17.4542 13.8923 17.7058 13.9977 17.9688 14C18.2317 14.0022 18.4851 13.9013 18.6743 13.7188L24.6922 7.70824L24.6983 7.69823C24.7875 7.60787 24.8584 7.50103 24.9069 7.38367C24.9585 7.26269 24.9851 7.13252 24.9851 7.001V6.99699Z" fill="#F8991D"/>
</svg>
