<svg width="20" height="21" viewBox="0 0 20 21" fill="none" xmlns="http://www.w3.org/2000/svg">
<path fill-rule="evenodd" clip-rule="evenodd" d="M0 8.7911C0 13.1428 3.5472 16.6833 7.90726 16.6833C9.80317 16.6833 11.5454 16.0138 12.9091 14.8994L18.6493 20.6286C18.7226 20.702 18.8097 20.7602 18.9057 20.7999C19.0016 20.8396 19.1045 20.8599 19.2083 20.8598C19.3649 20.8602 19.518 20.8141 19.6482 20.7274C19.7785 20.6408 19.88 20.5174 19.9399 20.3731C19.9998 20.2288 20.0154 20.0699 19.9846 19.9167C19.9539 19.7635 19.8783 19.6229 19.7674 19.5126L14.0272 13.7834C15.1438 12.4223 15.8145 10.6834 15.8145 8.7911C15.8145 4.43935 12.2673 0.898926 7.90726 0.898926C3.5472 0.898926 0 4.43935 0 8.7911ZM1.58145 8.7911C1.58145 5.30986 4.41937 2.47736 7.90726 2.47736C11.3959 2.47736 14.2331 5.30986 14.2331 8.7911C14.2331 12.2723 11.3951 15.1048 7.90726 15.1048C4.41937 15.1048 1.58145 12.2723 1.58145 8.7911Z" fill="#C4C4C4"/>
</svg>
