<svg width="50" height="50" viewBox="0 0 50 50" fill="none" xmlns="http://www.w3.org/2000/svg">
<path d="M24.0664 0.0278925C12.3946 0.469646 2.38366 8.99128 0.364643 20.7083C0.34412 20.8178 0.345357 20.9302 0.368283 21.0392C0.391208 21.1482 0.435373 21.2516 0.498257 21.3435C0.625255 21.5291 0.820786 21.6566 1.04184 21.6981C1.26289 21.7395 1.49135 21.6915 1.67696 21.5645C1.86257 21.4375 1.99013 21.2419 2.03158 21.0209C4.04372 9.34366 14.4754 1.03406 26.3064 1.69483C38.1373 2.3556 47.5898 11.7446 48.2891 23.5734C48.9884 35.4021 40.6858 45.9022 29.0151 47.9523C28.8942 47.9557 28.7755 47.9853 28.6672 48.0391C28.5588 48.0929 28.4635 48.1697 28.3878 48.264C28.3121 48.3584 28.2579 48.468 28.2289 48.5855C28.1998 48.7029 28.1967 48.8252 28.2197 48.944C28.2426 49.0627 28.2912 49.1751 28.362 49.2732C28.4327 49.3713 28.524 49.4528 28.6294 49.5121C28.7348 49.5714 28.8519 49.607 28.9725 49.6166C29.0931 49.6261 29.2143 49.6092 29.3277 49.5672C41.8189 47.373 50.7045 36.1296 49.956 23.4692C49.2076 10.8088 39.0733 0.735007 26.4105 0.0278925C25.6191 -0.0163125 24.8445 -0.00155777 24.0664 0.0278925ZM24.8478 3.30968C24.6548 3.3465 24.481 3.45033 24.3571 3.60282C24.2332 3.75532 24.1671 3.94669 24.1706 4.14314V5.81008C24.169 5.92053 24.1894 6.03018 24.2306 6.13267C24.2718 6.23516 24.333 6.32844 24.4105 6.4071C24.4881 6.48575 24.5805 6.54821 24.6824 6.59084C24.7843 6.63347 24.8936 6.65542 25.0041 6.65542C25.1145 6.65542 25.2239 6.63347 25.3258 6.59084C25.4277 6.54821 25.5201 6.48575 25.5976 6.4071C25.6752 6.32844 25.7363 6.23516 25.7775 6.13267C25.8187 6.03018 25.8391 5.92053 25.8375 5.81008V4.14314C25.8375 3.9221 25.7497 3.71012 25.5934 3.55382C25.4371 3.39752 25.2251 3.3097 25.0041 3.30968C24.9521 3.30478 24.8998 3.30478 24.8478 3.30968ZM24.952 8.31049C24.7401 8.32378 24.5412 8.41742 24.396 8.57231C24.2508 8.72719 24.1702 8.93165 24.1706 9.14396V15.8117C24.169 15.9222 24.1894 16.0318 24.2306 16.1343C24.2718 16.2368 24.333 16.3301 24.4105 16.4087C24.4881 16.4874 24.5805 16.5498 24.6824 16.5925C24.7843 16.6351 24.8936 16.657 25.0041 16.657C25.1145 16.657 25.2239 16.6351 25.3258 16.5925C25.4277 16.5498 25.5201 16.4874 25.5976 16.4087C25.6752 16.3301 25.7363 16.2368 25.7775 16.1343C25.8187 16.0318 25.8391 15.9222 25.8375 15.8117V9.14396C25.8375 8.92291 25.7497 8.71093 25.5934 8.55463C25.4371 8.39833 25.2251 8.31051 25.0041 8.31049C24.9867 8.30995 24.9693 8.30995 24.952 8.31049ZM17.8675 19.0935C15.6908 19.0935 14.5336 20.3784 14.5336 22.6357V24.0422H16.6694V22.5315C16.6694 21.5239 17.11 21.1251 17.8154 21.1251C18.5208 21.1251 18.9614 21.4702 18.9614 22.7399C18.9614 26.8112 14.5336 27.4958 14.5336 31.6476V33.3666H20.9409V31.3872H16.7736C16.7534 31.2871 16.7736 31.1755 16.7736 31.0746C16.7736 28.7569 21.1493 27.0698 21.1493 22.6357C21.1493 20.3784 20.0442 19.0935 17.8675 19.0935ZM26.0459 19.2498L22.0348 28.8347V30.8141H26.3064V33.3666H28.4942V30.8141H29.536V28.8347H28.4942V19.2498H26.0459ZM26.3064 23.5213V28.8347H24.0664L26.3064 23.5213ZM30.8383 24.1464C30.7289 24.1567 30.6225 24.1884 30.5253 24.2397C30.4281 24.2911 30.342 24.3611 30.2719 24.4458C30.2017 24.5304 30.149 24.628 30.1166 24.7331C30.0842 24.8381 30.0728 24.9485 30.083 25.058C30.0933 25.1675 30.125 25.2738 30.1764 25.371C30.2277 25.4682 30.2977 25.5543 30.3824 25.6245C30.467 25.6946 30.5647 25.7474 30.6697 25.7798C30.7748 25.8122 30.8852 25.8236 30.9946 25.8133H40.84C40.9504 25.8149 41.0601 25.7945 41.1626 25.7533C41.265 25.7121 41.3583 25.651 41.437 25.5734C41.5156 25.4959 41.5781 25.4035 41.6207 25.3016C41.6634 25.1997 41.6853 25.0903 41.6853 24.9799C41.6853 24.8694 41.6634 24.7601 41.6207 24.6582C41.5781 24.5563 41.5156 24.4639 41.437 24.3863C41.3583 24.3088 41.265 24.2476 41.1626 24.2064C41.0601 24.1652 40.9504 24.1448 40.84 24.1464H30.9946C30.9426 24.1415 30.8903 24.1415 30.8383 24.1464ZM44.0176 24.1464C43.7965 24.1671 43.5928 24.2748 43.4511 24.4458C43.3094 24.6167 43.2415 24.837 43.2622 25.058C43.283 25.2791 43.3906 25.4828 43.5616 25.6245C43.7326 25.7661 43.9528 25.8341 44.1738 25.8133H45.8408C45.9512 25.8149 46.0609 25.7945 46.1634 25.7533C46.2659 25.7121 46.3591 25.651 46.4378 25.5734C46.5164 25.4959 46.5789 25.4035 46.6215 25.3016C46.6642 25.1997 46.6861 25.0903 46.6861 24.9799C46.6861 24.8694 46.6642 24.7601 46.6215 24.6582C46.5789 24.5563 46.5164 24.4639 46.4378 24.3863C46.3591 24.3088 46.2659 24.2476 46.1634 24.2064C46.0609 24.1652 45.9512 24.1448 45.8408 24.1464H44.1738C44.1219 24.1415 44.0695 24.1415 44.0176 24.1464ZM0.677193 24.9799C0.515264 25.0228 0.37004 25.1136 0.260459 25.2403C0.259916 25.2577 0.259916 25.2751 0.260459 25.2924C0.201662 25.3373 0.149108 25.3899 0.104184 25.4487C0.103641 25.466 0.103641 25.4834 0.104184 25.5008C0.0844115 25.5343 0.0670051 25.5691 0.0520918 25.605C0.0515491 25.6223 0.0515491 25.6397 0.0520918 25.6571C0.0258148 25.724 0.00830556 25.794 0 25.8654C0.235553 39.0389 10.8607 49.6343 24.0143 49.9318C24.1176 49.9515 24.2236 49.9515 24.3269 49.9318C24.5012 49.9134 24.6652 49.8405 24.7957 49.7235C24.8362 49.6755 24.8711 49.623 24.8999 49.5672C24.918 49.5506 24.9354 49.5332 24.952 49.5151C24.9745 49.4649 24.9919 49.4125 25.0041 49.3588C25.0489 49.2058 25.0489 49.0431 25.0041 48.89V41.0241C25.0237 40.9209 25.0237 40.8148 25.0041 40.7116C24.9821 40.5792 24.9285 40.4541 24.8478 40.3469C24.8483 40.3296 24.8483 40.3122 24.8478 40.2949C24.8304 40.2943 24.8131 40.2943 24.7957 40.2949C24.7962 40.2775 24.7962 40.2601 24.7957 40.2428C24.6724 40.1067 24.5076 40.0151 24.3269 39.9823C24.2577 39.9736 24.1877 39.9736 24.1185 39.9823C22.2884 40.069 20.479 39.5504 18.9614 38.5237C18.9441 38.5232 18.9267 38.5232 18.9093 38.5237C18.9099 38.5064 18.9099 38.489 18.9093 38.4716C18.892 38.4711 18.8746 38.4711 18.8572 38.4716C18.8399 38.4711 18.8225 38.4711 18.8051 38.4716C18.8057 38.4543 18.8057 38.4369 18.8051 38.4195C18.6777 38.349 18.534 38.3131 18.3884 38.3154C18.2355 38.3191 18.0866 38.3648 17.958 38.4475C17.8294 38.5302 17.726 38.6467 17.6591 38.7842L17.607 38.8363L16.4089 41.2325C13.148 39.538 10.4915 36.8902 8.80351 33.6271L11.2518 32.3248C11.4058 32.24 11.529 32.1087 11.6038 31.9496C11.6787 31.7906 11.7013 31.6119 11.6686 31.4392C11.6691 31.4219 11.6691 31.4045 11.6686 31.3872C11.6536 31.3513 11.6362 31.3164 11.6165 31.283C11.617 31.2656 11.617 31.2482 11.6165 31.2309C11.5999 31.2128 11.5825 31.1954 11.5644 31.1788C11.5495 31.1429 11.5321 31.1081 11.5123 31.0746C11.5128 31.0572 11.5128 31.0399 11.5123 31.0225C10.4827 29.5004 9.96345 27.7009 10.0537 25.8654C10.0624 25.7423 10.0437 25.6189 9.99888 25.5039C9.95406 25.3889 9.88428 25.2853 9.79458 25.2006C9.70487 25.1159 9.59747 25.0521 9.48014 25.014C9.3628 24.9758 9.23845 24.9641 9.11606 24.9799H0.937652C0.902958 24.9777 0.868163 24.9777 0.833469 24.9799C0.781492 24.975 0.72917 24.975 0.677193 24.9799ZM1.71903 26.6468H8.43887C8.49929 28.2788 8.93275 29.863 9.74117 31.283L7.29285 32.4811C7.21564 32.5219 7.14532 32.5747 7.08448 32.6374C7.06636 32.6539 7.04898 32.6713 7.03239 32.6894C6.99189 32.7374 6.95694 32.7899 6.92821 32.8457C6.92767 32.8631 6.92767 32.8805 6.92821 32.8978C6.90844 32.9313 6.89103 32.9661 6.87612 33.002C6.87557 33.0194 6.87557 33.0367 6.87612 33.0541C6.8674 33.1233 6.8674 33.1933 6.87612 33.2625C6.87557 33.2798 6.87557 33.2972 6.87612 33.3146C6.87394 33.3492 6.87394 33.384 6.87612 33.4187C6.87557 33.4361 6.87557 33.4535 6.87612 33.4708C6.89103 33.5067 6.90844 33.5415 6.92821 33.575C6.93463 33.5889 6.92175 33.6132 6.92821 33.6271C6.96906 33.7043 7.0218 33.7746 7.08448 33.8355C8.98653 37.8016 12.1922 40.9768 16.1485 42.8994C16.2093 42.9621 16.2796 43.0149 16.3568 43.0557C16.3707 43.0622 16.395 43.0492 16.4089 43.0557C16.4569 43.0962 16.5093 43.1312 16.5652 43.1599C16.5826 43.1604 16.5999 43.1604 16.6173 43.1599C16.652 43.1621 16.6868 43.1621 16.7215 43.1599C16.7388 43.1604 16.7562 43.1604 16.7736 43.1599C16.8083 43.1621 16.843 43.1621 16.8777 43.1599C16.9136 43.145 16.9485 43.1276 16.9819 43.1078C16.9993 43.1084 17.0167 43.1084 17.034 43.1078C17.108 43.083 17.1781 43.0479 17.2424 43.0036C17.2597 43.0042 17.2771 43.0042 17.2945 43.0036C17.3572 42.9428 17.4099 42.8725 17.4508 42.7953C17.4513 42.7779 17.4513 42.7605 17.4508 42.7432C17.4689 42.7266 17.4863 42.7092 17.5028 42.6911L18.753 40.3469C20.1586 41.1389 21.7256 41.5345 23.3371 41.5971V48.2128C11.6845 47.5768 2.34717 38.3054 1.71903 26.6468Z" fill="#F8991D"/>
</svg>
