<svg width="23" height="24" viewBox="0 0 23 24" fill="none" xmlns="http://www.w3.org/2000/svg">
<path fill-rule="evenodd" clip-rule="evenodd" d="M8.1075 12.1217C3.41397 13.5679 0 17.935 0 23.0917C0 23.5141 0.343467 23.8569 0.766667 23.8569C1.18987 23.8569 1.53333 23.5141 1.53333 23.0917C1.53333 17.6013 5.99917 13.144 11.5 13.144C17.0008 13.144 21.4667 17.6013 21.4667 23.0917C21.4667 23.5141 21.8101 23.8569 22.2333 23.8569C22.6565 23.8569 23 23.5141 23 23.0917C23 17.935 19.586 13.5679 14.8925 12.1217C16.5439 11.0252 17.6333 9.14966 17.6333 7.02239C17.6333 3.64401 14.8848 0.900757 11.5 0.900757C8.11517 0.900757 5.36667 3.64401 5.36667 7.02239C5.36667 9.14966 6.4561 11.0252 8.1075 12.1217ZM11.5 2.43116C14.0384 2.43116 16.1 4.4888 16.1 7.02239C16.1 9.55598 14.0384 11.6136 11.5 11.6136C8.96157 11.6136 6.9 9.55598 6.9 7.02239C6.9 4.4888 8.96157 2.43116 11.5 2.43116Z" fill="white"/>
</svg>
